<svg xmlns="http://www.w3.org/2000/svg" width="56.386" height="32.947" viewBox="0 0 56.386 32.947">
  <g id="dinner_1_" data-name="dinner (1)" transform="translate(0 0)">
    <path id="Path_9608" data-name="Path 9608" d="M114.39,295.337a1.511,1.511,0,0,1,1.567-.862c1.061.031,2.125.009,3.13.009,1.972-11.6,8.678-18.559,20.17-21.025a3.5,3.5,0,0,1,1.782-4.432,3.239,3.239,0,0,1,3.72.388,3.449,3.449,0,0,1,1.127,4.039c11.459,2.419,18.178,9.361,20.195,21.029h.678c.862,0,1.726,0,2.588,0,1.252.009,1.788.871,1.177,1.947a9.358,9.358,0,0,1-8.206,5.078c-1.961.075-3.927.022-5.891.024-10.756,0-21.513-.053-32.268.026-4.408.032-7.688-1.641-9.769-5.56Zm7.232-.887h41.929a21.1,21.1,0,0,0-41.929,0Zm-3.795,2.438a7.3,7.3,0,0,0,5.379,2.3q19.376.007,38.751-.007a8.177,8.177,0,0,0,1.85-.225,6.815,6.815,0,0,0,3.515-2.069Zm24.78-23.573a1.146,1.146,0,0,0,1.154-1.14,1.174,1.174,0,0,0-2.348-.013A1.148,1.148,0,0,0,142.607,273.315Z" transform="translate(-114.39 -268.613)" fill="#ff987a"/>
    <path id="Path_9609" data-name="Path 9609" d="M203.008,333.987a1.144,1.144,0,0,1-1.117,1.14,17.051,17.051,0,0,0-5.521,1.377,16.215,16.215,0,0,0-8.694,9.106c-.047.119-.091.24-.14.359a1.18,1.18,0,1,1-2.188-.843,17.452,17.452,0,0,1,2.5-4.691,18.642,18.642,0,0,1,13.585-7.617C202.378,332.722,203.02,333.212,203.008,333.987Z" transform="translate(-174.817 -323.361)" fill="#ff987a"/>
  </g>
</svg>
